<svg xmlns="http://www.w3.org/2000/svg" viewBox="0 0 51.27 42"><defs><style>.category1-cls-1{fill:#5670f6;}.category1-cls-2{fill:#304bf5;}.category1-cls-3{fill:#e2e7fd;}</style></defs><title>Ресурс 1</title><g id="Слой_2" data-name="Слой 2"><g id="Слой_1-2" data-name="Слой 1"><path class="category1-cls-1" d="M11.34,18.83v13.6c0,4.72,6.46,9.57,14.43,9.57s14.42-4.85,14.42-9.57V18.83Z"/><path class="category1-cls-2" d="M0,19,25.64,1.17C34,6,43,10,51.27,14.8v4.52C42.73,24.26,34.19,29.57,25.64,34.5Z"/><polygon class="category1-cls-1" points="0 14.8 25.64 0 51.27 14.8 25.64 29.61 0 14.8"/><polygon class="category1-cls-2" points="25.64 30.78 25.64 29.61 0 14.8 0 19.04 25.64 30.78"/><path class="category1-cls-3" d="M34.76,30.59a.68.68,0,0,1-.68-.68V22L21.46,13.47a.69.69,0,0,1-.18-1,.68.68,0,0,1,.94-.18l13.22,9v8.61A.67.67,0,0,1,34.76,30.59Z"/><path class="category1-cls-3" d="M34,35.47h1.63a1.62,1.62,0,0,0,1.62-1.74l-.81-4.25A1.64,1.64,0,0,0,34.76,28h0a1.63,1.63,0,0,0-1.62,1.51l-.82,4.25A1.63,1.63,0,0,0,34,35.47Z"/><path class="category1-cls-3" d="M36.59,26.76a1.84,1.84,0,1,1-1.84-1.83A1.84,1.84,0,0,1,36.59,26.76Z"/></g></g></svg>
