<svg xmlns="http://www.w3.org/2000/svg" viewBox="0 0 42 42"><defs><style>.cls-1{fill:#5670f6;}.cls-2{fill:#304bf5;}</style></defs><title>Ресурс 6</title><g id="Слой_2" data-name="Слой 2"><g id="Слой_1-2" data-name="Слой 1"><path class="cls-1" d="M41.87,18.67a1.38,1.38,0,0,0-1.35-1,4.64,4.64,0,0,1-3.18-8.07A1.16,1.16,0,0,0,37.47,8a20.36,20.36,0,0,0-3.33-3.36,1.17,1.17,0,0,0-1.59.13,4.85,4.85,0,0,1-5.24,1.18,4.67,4.67,0,0,1-2.84-4.56,1.16,1.16,0,0,0-1-1.23,20.7,20.7,0,0,0-4.72,0,1.16,1.16,0,0,0-1,1.2A4.67,4.67,0,0,1,14.8,5.81,4.85,4.85,0,0,1,9.61,4.63,1.18,1.18,0,0,0,8,4.49a21.19,21.19,0,0,0-3.4,3.36,1.18,1.18,0,0,0,.13,1.6,4.65,4.65,0,0,1,1.17,5.24,4.85,4.85,0,0,1-4.57,2.84,1.13,1.13,0,0,0-1.21,1,21.13,21.13,0,0,0,0,4.77,1.4,1.4,0,0,0,1.38,1,4.6,4.6,0,0,1,4.32,2.87,4.7,4.7,0,0,1-1.17,5.2A1.16,1.16,0,0,0,4.53,34a20.69,20.69,0,0,0,3.32,3.36,1.17,1.17,0,0,0,1.6-.13,4.81,4.81,0,0,1,5.23-1.17,4.62,4.62,0,0,1,2.84,4.55,1.18,1.18,0,0,0,1,1.23A21.5,21.5,0,0,0,21,42a19.87,19.87,0,0,0,2.31-.13,1.16,1.16,0,0,0,1-1.2,4.66,4.66,0,0,1,2.87-4.48,4.86,4.86,0,0,1,5.2,1.18,1.18,1.18,0,0,0,1.59.14,21.61,21.61,0,0,0,3.4-3.36,1.18,1.18,0,0,0-.13-1.6,4.66,4.66,0,0,1-1.18-5.24,4.71,4.71,0,0,1,4.3-2.84h.26a1.16,1.16,0,0,0,1.23-1A21.13,21.13,0,0,0,41.87,18.67ZM27.51,31.2A12,12,0,0,1,21,33.11a12.13,12.13,0,1,1,10.39-5.9A14.7,14.7,0,0,1,27.51,31.2ZM17.4,20.27h0"/><path class="cls-2" d="M21,33.11a12.13,12.13,0,1,1,10.39-5.9l-5.3-5.3a7.42,7.42,0,0,0-6.83-10.32,7.23,7.23,0,0,0-2,.26.81.81,0,0,0-.58.58.83.83,0,0,0,.23.81l3.49,3.51a.48.48,0,0,1,.08.39v.06a17.13,17.13,0,0,1-.4,2.56l-.06,0-.06.06a16,16,0,0,1-2.6.41h-.08a.57.57,0,0,1-.41-.17L13.49,16.7a.88.88,0,0,0-.61-.27.84.84,0,0,0-.79.63A7.45,7.45,0,0,0,14,24.26a7.43,7.43,0,0,0,8.15,1.58l5.35,5.36A12,12,0,0,1,21,33.11Z"/></g></g></svg>