<svg xmlns="http://www.w3.org/2000/svg" viewBox="0 0 49.7 41.94"><defs><style>.cls-1{fill:#e2e7fd;}.cls-2{fill:#5670f6;}.cls-3{fill:#304bf5;}</style></defs><title>Ресурс 5</title><g id="Слой_2" data-name="Слой 2"><g id="Слой_1-2" data-name="Слой 1"><path class="cls-1" d="M49.7,3.11A3.1,3.1,0,0,0,46.6,0H3.11A3.11,3.11,0,0,0,0,3.11V34.17H49.7Z"/><path class="cls-2" d="M0,32.62v6.21a3.11,3.11,0,0,0,3.11,3.11H46.6a3.1,3.1,0,0,0,3.1-3.11V32.62Z"/><path class="cls-3" d="M17.33,21.15l-4.07-4.06L17.33,13a1,1,0,1,1,1.43,1.44l-2.62,2.63,2.62,2.62a1,1,0,1,1-1.43,1.44Z"/><path class="cls-3" d="M30.83,21A1.07,1.07,0,0,1,31,19.67l2.57-2.57a0,0,0,0,0,0,0L31,14.5a1.07,1.07,0,0,1-.16-1.34A1,1,0,0,1,32.39,13l4,4.05a0,0,0,0,1,0,0l-4,4A1,1,0,0,1,30.83,21Z"/><path class="cls-3" d="M22.82,21.15a1,1,0,0,1-.45-1.37l3.15-6.3a1,1,0,1,1,1.82.9l-3.15,6.31A1,1,0,0,1,22.82,21.15Z"/></g></g></svg>