<svg xmlns="http://www.w3.org/2000/svg" viewBox="0 0 35.82 42"><defs><style>.category2-cls-1{fill:none;}.category2-cls-2{fill:#cfd7fc;}.category2-cls-3{fill:#304bf5;}</style></defs><title>Ресурс 2</title><g id="Слой_2" data-name="Слой 2"><g id="Слой_1-2" data-name="Слой 1"><path class="category2-cls-1" d="M20.72,6.82a4,4,0,0,1-1.87,1v9.27a4,4,0,0,1,1.87,1L28,13.71a4,4,0,0,1,0-2.43Z"/><path class="category2-cls-1" d="M31.83,31.6a2.1,2.1,0,1,0-2.1-2.09A2.1,2.1,0,0,0,31.83,31.6Z"/><path class="category2-cls-1" d="M17.91,18.9A2.1,2.1,0,1,0,20,21,2.1,2.1,0,0,0,17.91,18.9Z"/><path class="category2-cls-1" d="M29,26.68a4,4,0,0,1,1.86-1.05V16.37A4,4,0,0,1,29,15.32l-7.31,4.47a3.95,3.95,0,0,1,0,2.42Z"/><path class="category2-cls-1" d="M31.83,10.4a2.1,2.1,0,1,0,2.09,2.09A2.1,2.1,0,0,0,31.83,10.4Z"/><path class="category2-cls-1" d="M17.91,1.89A2.1,2.1,0,1,0,20,4,2.1,2.1,0,0,0,17.91,1.89Z"/><path class="category2-cls-1" d="M17.91,40.11a2.1,2.1,0,1,0-2.1-2.1A2.1,2.1,0,0,0,17.91,40.11Z"/><path class="category2-cls-1" d="M7.79,11.28a4,4,0,0,1,0,2.43l7.31,4.46a4,4,0,0,1,1.86-1V7.86a4,4,0,0,1-1.86-1Z"/><path class="category2-cls-1" d="M4,10.4a2.1,2.1,0,1,0,2.09,2.09A2.1,2.1,0,0,0,4,10.4Z"/><path class="category2-cls-1" d="M6.8,15.32a4,4,0,0,1-1.86,1.05v9.26A4,4,0,0,1,6.8,26.68l7.31-4.47a3.95,3.95,0,0,1,0-2.42Z"/><path class="category2-cls-1" d="M28,30.72a4,4,0,0,1,0-2.43l-7.31-4.46a4,4,0,0,1-1.87,1v9.27a4,4,0,0,1,1.87,1Z"/><path class="category2-cls-1" d="M15.1,35.18a4,4,0,0,1,1.86-1V24.87a4,4,0,0,1-1.86-1L7.79,28.29a4,4,0,0,1,0,2.43Z"/><path class="category2-cls-2" d="M32.77,25.63V16.37A4,4,0,1,0,29,9.67L21.71,5.2A4.13,4.13,0,0,0,21.9,4a4,4,0,1,0-8,0,3.83,3.83,0,0,0,.19,1.21L6.8,9.67A4,4,0,1,0,3,16.37v9.26a4,4,0,0,0-3,3.88.94.94,0,0,0,1,.94.94.94,0,0,0,.94-.94A2.1,2.1,0,1,1,4,31.6a2.12,2.12,0,0,1-1.58-.71,1,1,0,0,0-1.33-.09A1,1,0,0,0,1,32.14a4,4,0,0,0,5.81.19l7.31,4.47A3.83,3.83,0,0,0,13.92,38a4,4,0,0,0,8,0,4.13,4.13,0,0,0-.19-1.21L29,32.33a4,4,0,1,0,3.75-6.7ZM21.71,19.79,29,15.32a4,4,0,0,0,1.86,1.05v9.26A4,4,0,0,0,29,26.68l-7.31-4.47a3.95,3.95,0,0,0,0-2.42Zm10.12-5.2a2.1,2.1,0,1,1,2.09-2.1A2.1,2.1,0,0,1,31.83,14.59Zm0,12.82a2.1,2.1,0,1,1-2.1,2.1A2.1,2.1,0,0,1,31.83,27.41ZM28,13.71l-7.31,4.46a4,4,0,0,0-1.87-1V7.86a4,4,0,0,0,1.87-1L28,11.28a4,4,0,0,0,0,2.43ZM17.91,23.1A2.1,2.1,0,1,1,20,21,2.1,2.1,0,0,1,17.91,23.1Zm0-17A2.1,2.1,0,1,1,20,4,2.1,2.1,0,0,1,17.91,6.08Zm-.95,11a4,4,0,0,0-1.86,1L7.79,13.71a4,4,0,0,0,0-2.43L15.1,6.82a4,4,0,0,0,1.86,1ZM7.79,28.29l7.31-4.46a4,4,0,0,0,1.86,1v9.27a4,4,0,0,0-1.86,1L7.79,30.72a4,4,0,0,0,0-2.43Zm10.12,7.63A2.1,2.1,0,1,1,15.81,38,2.1,2.1,0,0,1,17.91,35.92Zm.94-11a4,4,0,0,0,1.87-1L28,28.29a4,4,0,0,0,0,2.43l-7.31,4.46a4,4,0,0,0-1.87-1ZM6.08,12.49A2.1,2.1,0,1,1,4,10.4,2.1,2.1,0,0,1,6.08,12.49Zm8,9.72L6.8,26.68a4,4,0,0,0-1.86-1.05V16.37A4,4,0,0,0,6.8,15.32l7.31,4.47a3.95,3.95,0,0,0,0,2.42Z"/><circle class="category2-cls-3" cx="17.91" cy="20.99" r="3.99"/><circle class="category2-cls-3" cx="3.99" cy="12.49" r="3.99"/><circle class="category2-cls-3" cx="3.99" cy="29.51" r="3.99"/><circle class="category2-cls-3" cx="17.91" cy="3.99" r="3.99"/><circle class="category2-cls-3" cx="17.91" cy="38.01" r="3.99"/><circle class="category2-cls-3" cx="31.83" cy="12.49" r="3.99"/><circle class="category2-cls-3" cx="31.83" cy="29.51" r="3.99"/></g></g></svg>
