<svg xmlns="http://www.w3.org/2000/svg" viewBox="0 0 52 52">
    <g fill="none" fill-rule="nonzero">
        <path fill="#304BF5" d="M20.3 22.486l-3.8 3.373c-.73.563-1.023 1.406-1.17 2.25l-.584 7.729 6.285-3.233M31.7 22.486l3.8 3.373c.73.563 1.023 1.406 1.17 2.25l.584 7.729-6.285-3.233"/>
        <path fill="#5670F6" d="M30.97 32.605c.876-1.827 2.922-6.324 2.922-12.227C33.892 6.605 26 0 26 0s-7.892 6.465-7.892 20.238c0 7.448 2.046 10.54 2.923 12.227l9.938.14z"/>
        <ellipse cx="26" cy="15.178" fill="#FFF" rx="3.215" ry="3.092"/>
        <path fill="#304BF5" d="M26.877 35.697h-1.608l-.877-11.102c0-.844.731-1.546 1.608-1.546.877 0 1.608.702 1.608 1.546l-.731 11.102z"/>
        <path fill="#E2E7FD" d="M39.154 46.378c-1.754 0-3.216.703-4.385 1.968-1.023-2.53-3.069-4.638-5.7-5.622-1.023-.28-1.607-1.124-1.607-2.248v-2.53h-2.924v2.53c0 .983-.73 1.827-1.607 2.248-2.631.984-4.677 2.952-5.7 5.622-1.023-1.124-2.631-1.968-4.385-1.968C9.631 46.378 7 48.908 7 52h38c0-3.092-2.63-5.622-5.846-5.622z"/>
    </g>
</svg>
