<svg xmlns="http://www.w3.org/2000/svg" viewBox="0 0 44.27 42.06"><defs><style>.cls-1{fill:#cfd7fc;}.cls-2{fill:#e2e7fd;}.cls-3{fill:#304bf5;}.cls-4{fill:#5670f6;}</style></defs><title>Ресурс 4</title><g id="Слой_2" data-name="Слой 2"><g id="Слой_1-2" data-name="Слой 1"><path d="M36,35H33.69v2.07H36a1.06,1.06,0,0,0,.73-.3A1,1,0,0,0,36,35Z"/><path d="M36.73,33A1,1,0,0,0,36,31.2H33.69v2.07H36A1,1,0,0,0,36.73,33Z"/><path class="cls-1" d="M33.83,24.87A7.12,7.12,0,1,0,40.94,32,7.12,7.12,0,0,0,33.83,24.87Z"/><path class="cls-2" d="M33.83,21.9A10.08,10.08,0,1,0,43.91,32,10.1,10.1,0,0,0,33.83,21.9Zm0,17.2A7.12,7.12,0,1,1,40.94,32,7.12,7.12,0,0,1,33.83,39.1Z"/><path class="cls-1" d="M11.64,3a7.11,7.11,0,1,0,7.11,7.11A7.12,7.12,0,0,0,11.64,3Z"/><path class="cls-2" d="M11.64,0A10.08,10.08,0,1,0,21.72,10.08,10.09,10.09,0,0,0,11.64,0Zm0,17.19a7.11,7.11,0,1,1,7.11-7.11A7.12,7.12,0,0,1,11.64,17.19Z"/><path class="cls-3" d="M44,13.8,44,13.73a1.1,1.1,0,0,0-1.55,0L41,15.55A15.4,15.4,0,0,0,25.74,2.72a1.07,1.07,0,1,0,0,2.14A13.35,13.35,0,0,1,38.81,15.69L36.9,14.1a1.07,1.07,0,0,0-1.51.13,1.08,1.08,0,0,0,.14,1.52l1.17,1a36.68,36.68,0,0,0,3,2.45A1.06,1.06,0,0,0,40.86,19l.42-.52c.71-.86,2.17-2.66,2.67-3.19A1.06,1.06,0,0,0,44,13.8Z"/><path class="cls-4" d="M18.53,37.66A13.37,13.37,0,0,1,5.45,26.83l1.92,1.6a1,1,0,0,0,.78.24,1.09,1.09,0,0,0,.73-.38,1.07,1.07,0,0,0,.24-.79,1,1,0,0,0-.38-.72l-1.14-1a35.4,35.4,0,0,0-3.06-2.47,1.07,1.07,0,0,0-1.13.22L3,24.1C2.27,25,.81,26.74.31,27.27a1.08,1.08,0,0,0,0,1.46l0,.06a1.12,1.12,0,0,0,1.56,0L3.27,27A15.42,15.42,0,0,0,18.53,39.81a1.08,1.08,0,0,0,0-2.15Z"/></g></g></svg>