<svg xmlns="http://www.w3.org/2000/svg" viewBox="0 0 41.93 41.93"><defs><style>.cls-1{fill:#304bf5;}.cls-2{fill:#e2e7fd;}</style></defs><title>Ресурс 7</title><g id="Слой_2" data-name="Слой 2"><g id="Слой_1-2" data-name="Слой 1"><circle class="cls-1" cx="20.97" cy="20.97" r="16.5"/><circle class="cls-2" cx="14.53" cy="20.97" r="1.95"/><circle class="cls-2" cx="20.97" cy="20.97" r="1.95"/><circle class="cls-2" cx="27.4" cy="20.97" r="1.95"/><path class="cls-2" d="M21,0a21,21,0,1,0,21,21A21,21,0,0,0,21,0Zm0,32.75a15,15,0,0,1-6.79-1.59c-.54.43-3,2.2-5.36,1.37a5.25,5.25,0,0,0,1.68-4.09A10.84,10.84,0,0,1,7.43,21C7.43,14.46,13.49,9.18,21,9.18S34.5,14.46,34.5,21,28.44,32.75,21,32.75Z"/></g></g></svg>