<svg xmlns="http://www.w3.org/2000/svg" viewBox="0 0 25.77 42.13"><defs><style>.cls-1{fill:#5670f6;}.cls-2{fill:#e2e7fd;}.cls-3{fill:#304bf5;}</style></defs><title>Ресурс 3</title><g id="Слой_2" data-name="Слой 2"><g id="Слой_1-2" data-name="Слой 1"><path class="cls-1" d="M23.67,0H2.11A2.1,2.1,0,0,0,0,2.11V40a2.1,2.1,0,0,0,2.11,2.11H23.67A2.1,2.1,0,0,0,25.77,40V2.11A2.1,2.1,0,0,0,23.67,0Z"/><rect class="cls-2" x="2.53" y="4.83" width="20.7" height="29.97"/><path class="cls-3" d="M17.05,3.22H9A.81.81,0,1,1,9,1.61h8.05a.81.81,0,1,1,0,1.61Z"/><path class="cls-3" d="M22.69,3.22h-.8a.81.81,0,1,1,0-1.61h.8a.81.81,0,1,1,0,1.61Z"/><path class="cls-3" d="M13.89,40.17h-2a1.42,1.42,0,0,1-1.42-1.42v-.39a1.42,1.42,0,0,1,1.42-1.42h2a1.42,1.42,0,0,1,1.41,1.42v.39A1.42,1.42,0,0,1,13.89,40.17Z"/><polygon class="cls-3" points="12.89 26.44 19.22 20.02 12.89 13.2 12.89 26.44"/><polygon class="cls-3" points="12.89 26.44 6.55 20.02 12.89 13.2 12.89 26.44"/></g></g></svg>