<svg xmlns="http://www.w3.org/2000/svg" width="180" height="32" viewBox="0 0 180 32">
    <g fill="none" fill-rule="evenodd">
        <path fill="#B7BFD1" fill-rule="nonzero" d="M143.235 21.33c1.085 0 2.047-.23 2.885-.694a4.834 4.834 0 0 0 1.948-1.973c.46-.853.691-1.83.691-2.93v-1.135c0-1.095-.232-2.072-.696-2.93a4.844 4.844 0 0 0-1.939-1.978c-.829-.46-1.766-.69-2.81-.69h-3.564v12.33h3.485zm.008-.88h-2.416V9.89h2.504c1.308.005 2.361.434 3.16 1.286.8.853 1.2 1.988 1.2 3.405v1.084c0 1.468-.405 2.632-1.217 3.493-.811.861-1.888 1.292-3.23 1.292zm11.663 1.05c.823 0 1.555-.192 2.197-.576a3.87 3.87 0 0 0 1.493-1.639c.353-.708.53-1.506.53-2.392v-.212c0-1.411-.391-2.545-1.173-3.4s-1.804-1.283-3.065-1.283c-.817 0-1.548.196-2.193.589a3.95 3.95 0 0 0-1.497 1.647c-.353.705-.53 1.499-.53 2.38v.203c0 1.411.393 2.545 1.178 3.4.785.855 1.805 1.283 3.06 1.283zm0-.855c-.952 0-1.72-.352-2.307-1.055s-.88-1.602-.88-2.697v-.186c0-1.146.295-2.074.884-2.782.59-.709 1.351-1.063 2.285-1.063.625 0 1.18.16 1.664.478.484.32.86.77 1.13 1.351a4.53 4.53 0 0 1 .402 1.922v.195c0 1.152-.293 2.08-.88 2.782-.586.703-1.353 1.055-2.298 1.055zm9.885.855c.63 0 1.221-.13 1.773-.39.551-.26.994-.62 1.326-1.08.333-.46.514-.969.543-1.528h-1.007a2.078 2.078 0 0 1-.8 1.546c-.494.398-1.106.597-1.835.597-.952 0-1.689-.328-2.21-.983-.523-.655-.785-1.566-.785-2.735v-.297c0-1.19.262-2.117.784-2.777.522-.66 1.257-.991 2.202-.991.741 0 1.356.22 1.843.66.488.44.755 1.02.801 1.736h1.007c-.047-.976-.407-1.764-1.081-2.362-.674-.599-1.53-.898-2.57-.898-.817 0-1.53.19-2.14.567-.61.379-1.079.915-1.406 1.61-.327.694-.49 1.493-.49 2.396v.305c0 1.411.363 2.535 1.09 3.37.727.836 1.712 1.254 2.955 1.254zm8.966 0c1.039 0 1.88-.231 2.526-.694.645-.463.967-1.082.967-1.855 0-.474-.11-.878-.333-1.211-.222-.333-.562-.618-1.02-.856-.458-.237-1.147-.46-2.066-.669-.92-.208-1.553-.439-1.9-.69-.347-.251-.52-.605-.52-1.063 0-.474.208-.86.625-1.156.417-.296.97-.444 1.66-.444.706 0 1.29.178 1.755.533.464.356.696.802.696 1.338h1.05c0-.813-.32-1.472-.958-1.977-.64-.505-1.487-.758-2.544-.758-.975 0-1.774.236-2.399.707-.624.472-.937 1.069-.937 1.791 0 .458.113.847.337 1.169.225.322.57.594 1.034.817.464.223 1.116.42 1.956.593.841.172 1.47.41 1.887.716.418.305.626.708.626 1.21 0 .475-.224.867-.674 1.178-.45.31-1.039.466-1.768.466-.783 0-1.412-.165-1.887-.496-.476-.33-.734-.792-.775-1.384h-1.05c0 .79.342 1.444 1.028 1.96.686.517 1.58.775 2.684.775z"/>
        <path fill="#4B5365" d="M131.75 6h1v20h-1z"/>
        <path fill="#FFF" fill-rule="nonzero" d="M30.052 9.327c.872 0 1.716.204 2.534.61.818.408 1.441.935 1.87 1.582.353.528.606 1.132.757 1.812l.068.346c.122.563.183 1.461.183 2.694h-9.001c.038 1.24.333 2.236.883 2.986s1.403 1.124 2.557 1.124c1.078 0 1.938-.354 2.58-1.062.367-.41.627-.886.78-1.427h2.03c-.054.45-.232.95-.534 1.502-.302.551-.64 1.002-1.015 1.352-.627.61-1.402 1.02-2.327 1.233a7.1 7.1 0 0 1-1.686.183c-1.529 0-2.825-.554-3.887-1.661-1.063-1.107-1.594-2.658-1.594-4.652 0-1.964.535-3.559 1.605-4.784 1.07-1.225 2.47-1.838 4.197-1.838zm-.126 1.792c-.948 0-1.743.341-2.385 1.022-.642.681-.982 1.547-1.02 2.597h6.822c-.084-.89-.279-1.602-.585-2.134-.565-.99-1.51-1.485-2.832-1.485zm6.903-1.518H39.5l2.82 4.304 2.855-4.304 2.512.057-4.14 5.902 4.323 6.268h-2.637l-3.05-4.59-2.959 4.59h-2.614l4.323-6.268-4.105-5.96zm17.647-.354c1.384 0 2.51.335 3.377 1.005.867.67 1.39 1.823 1.565 3.459h-2.007c-.122-.754-.401-1.38-.837-1.878-.435-.499-1.135-.748-2.098-.748-1.315 0-2.255.64-2.82 1.918-.368.83-.551 1.853-.551 3.071 0 1.226.26 2.257.78 3.094.52.837 1.337 1.256 2.453 1.256.856 0 1.535-.26 2.036-.782.5-.521.846-1.235 1.037-2.14h2.007c-.23 1.62-.803 2.806-1.72 3.556-.917.75-2.09 1.124-3.52 1.124-1.606 0-2.886-.584-3.842-1.752-.955-1.169-1.433-2.628-1.433-4.379 0-2.146.524-3.817 1.571-5.012 1.047-1.195 2.381-1.792 4.002-1.792zM61.482 5h2.064v6.256c.49-.616.929-1.05 1.319-1.301.665-.434 1.494-.65 2.488-.65 1.781 0 2.989.62 3.623 1.86.344.677.516 1.617.516 2.82v7.843h-2.121v-7.706c0-.898-.115-1.557-.344-1.975-.375-.67-1.078-1.005-2.11-1.005-.856 0-1.632.293-2.328.88-.695.585-1.043 1.693-1.043 3.322v6.484h-2.064V5zm17.876 4.304c1.445 0 2.619.274 3.52.822.895.548 1.342 1.4 1.342 2.557v7.045c0 .213.044.384.132.513.088.13.273.194.556.194.092 0 .195-.005.31-.017.114-.011.237-.028.367-.051v1.518l-.349.093a3.846 3.846 0 0 1-.385.079 5.386 5.386 0 0 1-.688.034c-.711 0-1.227-.251-1.548-.754-.168-.266-.287-.643-.356-1.13-.42.548-1.024 1.024-1.811 1.427-.788.404-1.655.605-2.603.605-1.14 0-2.07-.344-2.792-1.033-.723-.689-1.084-1.55-1.084-2.586 0-1.134.356-2.013 1.066-2.637.711-.624 1.644-1.009 2.798-1.153l3.291-.411c.474-.061.791-.259.952-.594.092-.183.138-.445.138-.788 0-.7-.25-1.208-.752-1.524-.5-.316-1.217-.474-2.15-.474-1.077 0-1.842.29-2.293.868-.252.32-.416.795-.493 1.427H74.6c.038-1.507.53-2.555 1.473-3.145.944-.59 2.04-.885 3.285-.885zm2.798 6.302a3.54 3.54 0 0 1-.974.4 8.337 8.337 0 0 1-1.17.228l-1.25.16c-.75.099-1.31.255-1.685.468-.635.358-.952.929-.952 1.712 0 .594.218 1.062.653 1.405.436.342.952.513 1.548.513.727 0 1.43-.167 2.11-.502 1.147-.555 1.72-1.465 1.72-2.728v-1.656zm5.447-6.005h1.96v1.735c.582-.715 1.197-1.229 1.847-1.541.65-.312 1.372-.468 2.167-.468 1.743 0 2.92.605 3.532 1.815.336.662.504 1.61.504 2.843v7.843h-2.098v-7.706c0-.746-.111-1.347-.333-1.804-.367-.761-1.032-1.142-1.995-1.142-.49 0-.89.05-1.204.149-.566.167-1.063.502-1.49 1.005-.345.403-.568.82-.671 1.25-.104.43-.155 1.044-.155 1.843v6.405h-2.064V9.601zm17.395-.217c.963 0 1.804.236 2.522.708.39.266.788.654 1.193 1.164v-1.54h1.903v11.119c0 1.553-.23 2.778-.688 3.676-.856 1.66-2.473 2.489-4.85 2.489-1.323 0-2.435-.295-3.337-.885-.902-.59-1.406-1.513-1.513-2.768h2.098c.1.548.298.97.596 1.267.466.457 1.2.685 2.202.685 1.582 0 2.618-.556 3.107-1.667.29-.654.424-1.823.402-3.505-.413.624-.91 1.089-1.491 1.393-.581.304-1.35.457-2.305.457-1.33 0-2.494-.47-3.491-1.41-.998-.94-1.497-2.495-1.497-4.664 0-2.047.503-3.646 1.508-4.795 1.005-1.15 2.219-1.724 3.64-1.724zm.378 1.815c-1.452 0-2.446.678-2.981 2.032-.283.724-.425 1.671-.425 2.843 0 1.378.281 2.426.843 3.146.562.719 1.317 1.078 2.265 1.078 1.483 0 2.526-.666 3.13-1.998.337-.753.505-1.632.505-2.637 0-1.514-.314-2.637-.94-3.368-.627-.73-1.426-1.096-2.397-1.096zm13.462-1.872c.871 0 1.716.204 2.534.61.818.408 1.44.935 1.869 1.582.354.528.606 1.132.758 1.812l.068.346c.122.563.183 1.461.183 2.694h-9.001c.038 1.24.332 2.236.883 2.986.55.75 1.402 1.124 2.557 1.124 1.078 0 1.938-.354 2.58-1.062.367-.41.627-.886.78-1.427h2.029c-.054.45-.231.95-.533 1.502-.302.551-.64 1.002-1.015 1.352-.627.61-1.403 1.02-2.328 1.233a7.1 7.1 0 0 1-1.685.183c-1.53 0-2.825-.554-3.887-1.661-1.063-1.107-1.594-2.658-1.594-4.652 0-1.964.535-3.559 1.605-4.784 1.07-1.225 2.47-1.838 4.197-1.838zm-.126 1.792c-.948 0-1.743.341-2.385 1.022-.643.681-.983 1.547-1.02 2.597h6.822c-.084-.89-.28-1.602-.585-2.134-.566-.99-1.51-1.485-2.832-1.485z"/>
        <path fill="#5A81EA" d="M12 16l9.25 9.25H2.75z"/>
        <path fill="#E14B51" d="M12 16l9.25-9.25H2.75z"/>
    </g>
</svg>
