<svg xmlns="http://www.w3.org/2000/svg" viewBox="0 0 224 40">
    <g fill="none" fill-rule="nonzero">
        <path fill="#000" d="M52.171 7.867c1.585 0 3.122.37 4.61 1.11 1.487.741 2.62 1.7 3.4 2.876.643.96 1.102 2.058 1.378 3.294l.123.629c.222 1.024.333 2.657.333 4.899H45.643c.07 2.255.605 4.065 1.606 5.428 1.001 1.363 2.552 2.044 4.651 2.044 1.96 0 3.525-.643 4.693-1.93a6.499 6.499 0 0 0 1.418-2.595h3.692c-.098.817-.421 1.727-.97 2.73-.55 1.003-1.165 1.823-1.846 2.46-1.14 1.107-2.551 1.854-4.234 2.241-.904.222-1.926.333-3.066.333-2.78 0-5.137-1.007-7.07-3.02-1.933-2.014-2.899-4.834-2.899-8.46 0-3.57.973-6.469 2.92-8.697 1.947-2.228 4.491-3.342 7.633-3.342zm-.23 3.26c-1.723 0-3.17.618-4.337 1.857-1.168 1.238-1.787 2.813-1.856 4.722h12.409c-.153-1.619-.507-2.913-1.064-3.881-1.029-1.8-2.746-2.699-5.151-2.699zm12.556-2.762h4.86l5.13 7.826 5.194-7.826 4.567.104-7.529 10.732 7.863 11.396h-4.797l-5.548-8.345-5.38 8.345H64.1L71.964 19.2 64.497 8.365zm32.098-.643c2.517 0 4.564.609 6.142 1.827 1.578 1.217 2.527 3.314 2.847 6.29h-3.65c-.222-1.37-.73-2.51-1.522-3.416-.793-.906-2.065-1.36-3.817-1.36-2.392 0-4.102 1.163-5.13 3.488-.668 1.509-1.002 3.37-1.002 5.584 0 2.228.473 4.103 1.418 5.625.946 1.522 2.434 2.284 4.464 2.284 1.557 0 2.79-.474 3.702-1.422.91-.948 1.54-2.246 1.887-3.892h3.65c-.417 2.947-1.46 5.103-3.129 6.466-1.668 1.363-3.802 2.044-6.402 2.044-2.92 0-5.25-1.062-6.987-3.186-1.738-2.124-2.607-4.778-2.607-7.96 0-3.903.952-6.94 2.857-9.113 1.905-2.173 4.331-3.26 7.279-3.26zM109.338 0h3.754v11.375c.89-1.12 1.69-1.91 2.399-2.366 1.21-.789 2.718-1.183 4.525-1.183 3.24 0 5.437 1.127 6.59 3.383.627 1.232.94 2.94.94 5.127v14.26h-3.859v-14.01c0-1.634-.209-2.83-.626-3.592-.681-1.217-1.96-1.826-3.837-1.826-1.557 0-2.969.532-4.234 1.598-1.265 1.066-1.898 3.079-1.898 6.04v11.79h-3.754V0zm32.515 7.826c2.628 0 4.762.498 6.403 1.494 1.626.997 2.44 2.546 2.44 4.65v12.807c0 .388.08.7.24.934.16.236.497.353 1.011.353.167 0 .355-.01.563-.03.209-.022.431-.053.668-.094v2.76l-.634.17c-.284.07-.518.117-.701.142a9.8 9.8 0 0 1-1.252.062c-1.293 0-2.231-.456-2.815-1.37-.306-.484-.522-1.17-.647-2.055-.764.997-1.863 1.861-3.295 2.595-1.432.733-3.01 1.1-4.734 1.1-2.072 0-3.765-.626-5.079-1.879-1.314-1.252-1.97-2.82-1.97-4.701 0-2.062.646-3.66 1.939-4.795 1.293-1.135 2.99-1.834 5.089-2.097l5.986-.747c.862-.11 1.439-.47 1.73-1.08.167-.331.25-.809.25-1.432 0-1.273-.454-2.196-1.365-2.77-.91-.575-2.214-.862-3.91-.862-1.961 0-3.352.526-4.172 1.577-.459.582-.758 1.446-.897 2.595h-3.504c.07-2.74.963-4.646 2.68-5.719 1.718-1.072 3.71-1.608 5.976-1.608zm5.089 11.458c-.46.29-1.05.533-1.773.726a15.17 15.17 0 0 1-2.127.416l-2.274.29c-1.362.18-2.384.464-3.066.851-1.154.65-1.73 1.688-1.73 3.114 0 1.08.396 1.93 1.188 2.553.793.623 1.731.934 2.816.934 1.32 0 2.6-.304 3.837-.913 2.086-1.01 3.129-2.664 3.129-4.961v-3.01zm9.906-10.919h3.567v3.155c1.056-1.3 2.176-2.234 3.358-2.802 1.181-.567 2.495-.85 3.941-.85 3.17 0 5.312 1.1 6.424 3.3.612 1.204.918 2.926.918 5.168v14.26h-3.817v-14.01c0-1.357-.202-2.45-.605-3.28-.667-1.384-1.877-2.076-3.629-2.076-.89 0-1.62.09-2.19.27-1.029.304-1.932.913-2.711 1.826-.626.734-1.032 1.492-1.22 2.273-.188.782-.282 1.9-.282 3.353v11.645h-3.754V8.365zm31.64-.394c1.751 0 3.28.429 4.587 1.287.71.484 1.433 1.19 2.17 2.117V8.573h3.462V28.79c0 2.823-.418 5.05-1.252 6.684-1.557 3.017-4.498 4.525-8.822 4.525-2.405 0-4.428-.536-6.07-1.609-1.64-1.072-2.557-2.75-2.752-5.033h3.817c.18.996.542 1.764 1.084 2.304.848.83 2.183 1.245 4.004 1.245 2.879 0 4.763-1.01 5.653-3.03.528-1.19.771-3.315.73-6.373-.751 1.135-1.655 1.979-2.712 2.532-1.057.554-2.454.83-4.192.83-2.42 0-4.536-.854-6.35-2.563-1.815-1.709-2.722-4.535-2.722-8.48 0-3.722.914-6.628 2.742-8.718 1.829-2.09 4.036-3.134 6.622-3.134zm.687 3.3c-2.641 0-4.449 1.232-5.422 3.695-.515 1.315-.772 3.038-.772 5.169 0 2.505.511 4.41 1.533 5.719 1.022 1.307 2.395 1.961 4.12 1.961 2.696 0 4.594-1.21 5.693-3.632.612-1.37.917-2.969.917-4.795 0-2.754-.57-4.795-1.71-6.124-1.14-1.328-2.593-1.993-4.359-1.993zm24.485-3.404c1.586 0 3.122.37 4.61 1.11 1.487.741 2.62 1.7 3.4 2.876.643.96 1.102 2.058 1.378 3.294l.123.629c.222 1.024.334 2.657.334 4.899h-16.373c.07 2.255.605 4.065 1.606 5.428 1.001 1.363 2.552 2.044 4.651 2.044 1.96 0 3.525-.643 4.693-1.93a6.499 6.499 0 0 0 1.418-2.595h3.692c-.098.817-.42 1.727-.97 2.73s-1.165 1.823-1.846 2.46c-1.14 1.107-2.551 1.854-4.234 2.241-.903.222-1.925.333-3.066.333-2.78 0-5.137-1.007-7.07-3.02-1.932-2.014-2.899-4.834-2.899-8.46 0-3.57.974-6.469 2.92-8.697 1.947-2.228 4.491-3.342 7.633-3.342zm-.229 3.26c-1.724 0-3.17.618-4.338 1.857-1.168 1.238-1.787 2.813-1.856 4.722h12.41c-.154-1.619-.508-2.913-1.065-3.881-1.028-1.8-2.746-2.699-5.151-2.699z"/>
        <path fill="#FFF" d="M52.171 7.867c1.585 0 3.122.37 4.61 1.11 1.487.741 2.62 1.7 3.4 2.876.643.96 1.102 2.058 1.378 3.294l.123.629c.222 1.024.333 2.657.333 4.899H45.643c.07 2.255.605 4.065 1.606 5.428 1.001 1.363 2.552 2.044 4.651 2.044 1.96 0 3.525-.643 4.693-1.93a6.499 6.499 0 0 0 1.418-2.595h3.692c-.098.817-.421 1.727-.97 2.73-.55 1.003-1.165 1.823-1.846 2.46-1.14 1.107-2.551 1.854-4.234 2.241-.904.222-1.926.333-3.066.333-2.78 0-5.137-1.007-7.07-3.02-1.933-2.014-2.899-4.834-2.899-8.46 0-3.57.973-6.469 2.92-8.697 1.947-2.228 4.491-3.342 7.633-3.342zm-.23 3.26c-1.723 0-3.17.618-4.337 1.857-1.168 1.238-1.787 2.813-1.856 4.722h12.409c-.153-1.619-.507-2.913-1.064-3.881-1.029-1.8-2.746-2.699-5.151-2.699zm12.556-2.762h4.86l5.13 7.826 5.194-7.826 4.567.104-7.529 10.732 7.863 11.396h-4.797l-5.548-8.345-5.38 8.345H64.1L71.964 19.2 64.497 8.365zm32.098-.643c2.517 0 4.564.609 6.142 1.827 1.578 1.217 2.527 3.314 2.847 6.29h-3.65c-.222-1.37-.73-2.51-1.522-3.416-.793-.906-2.065-1.36-3.817-1.36-2.392 0-4.102 1.163-5.13 3.488-.668 1.509-1.002 3.37-1.002 5.584 0 2.228.473 4.103 1.418 5.625.946 1.522 2.434 2.284 4.464 2.284 1.557 0 2.79-.474 3.702-1.422.91-.948 1.54-2.246 1.887-3.892h3.65c-.417 2.947-1.46 5.103-3.129 6.466-1.668 1.363-3.802 2.044-6.402 2.044-2.92 0-5.25-1.062-6.987-3.186-1.738-2.124-2.607-4.778-2.607-7.96 0-3.903.952-6.94 2.857-9.113 1.905-2.173 4.331-3.26 7.279-3.26zM109.338 0h3.754v11.375c.89-1.12 1.69-1.91 2.399-2.366 1.21-.789 2.718-1.183 4.525-1.183 3.24 0 5.437 1.127 6.59 3.383.627 1.232.94 2.94.94 5.127v14.26h-3.859v-14.01c0-1.634-.209-2.83-.626-3.592-.681-1.217-1.96-1.826-3.837-1.826-1.557 0-2.969.532-4.234 1.598-1.265 1.066-1.898 3.079-1.898 6.04v11.79h-3.754V0zm32.515 7.826c2.628 0 4.762.498 6.403 1.494 1.626.997 2.44 2.546 2.44 4.65v12.807c0 .388.08.7.24.934.16.236.497.353 1.011.353.167 0 .355-.01.563-.03.209-.022.431-.053.668-.094v2.76l-.634.17c-.284.07-.518.117-.701.142a9.8 9.8 0 0 1-1.252.062c-1.293 0-2.231-.456-2.815-1.37-.306-.484-.522-1.17-.647-2.055-.764.997-1.863 1.861-3.295 2.595-1.432.733-3.01 1.1-4.734 1.1-2.072 0-3.765-.626-5.079-1.879-1.314-1.252-1.97-2.82-1.97-4.701 0-2.062.646-3.66 1.939-4.795 1.293-1.135 2.99-1.834 5.089-2.097l5.986-.747c.862-.11 1.439-.47 1.73-1.08.167-.331.25-.809.25-1.432 0-1.273-.454-2.196-1.365-2.77-.91-.575-2.214-.862-3.91-.862-1.961 0-3.352.526-4.172 1.577-.459.582-.758 1.446-.897 2.595h-3.504c.07-2.74.963-4.646 2.68-5.719 1.718-1.072 3.71-1.608 5.976-1.608zm5.089 11.458c-.46.29-1.05.533-1.773.726a15.17 15.17 0 0 1-2.127.416l-2.274.29c-1.362.18-2.384.464-3.066.851-1.154.65-1.73 1.688-1.73 3.114 0 1.08.396 1.93 1.188 2.553.793.623 1.731.934 2.816.934 1.32 0 2.6-.304 3.837-.913 2.086-1.01 3.129-2.664 3.129-4.961v-3.01zm9.906-10.919h3.567v3.155c1.056-1.3 2.176-2.234 3.358-2.802 1.181-.567 2.495-.85 3.941-.85 3.17 0 5.312 1.1 6.424 3.3.612 1.204.918 2.926.918 5.168v14.26h-3.817v-14.01c0-1.357-.202-2.45-.605-3.28-.667-1.384-1.877-2.076-3.629-2.076-.89 0-1.62.09-2.19.27-1.029.304-1.932.913-2.711 1.826-.626.734-1.032 1.492-1.22 2.273-.188.782-.282 1.9-.282 3.353v11.645h-3.754V8.365zm31.64-.394c1.751 0 3.28.429 4.587 1.287.71.484 1.433 1.19 2.17 2.117V8.573h3.462V28.79c0 2.823-.418 5.05-1.252 6.684-1.557 3.017-4.498 4.525-8.822 4.525-2.405 0-4.428-.536-6.07-1.609-1.64-1.072-2.557-2.75-2.752-5.033h3.817c.18.996.542 1.764 1.084 2.304.848.83 2.183 1.245 4.004 1.245 2.879 0 4.763-1.01 5.653-3.03.528-1.19.771-3.315.73-6.373-.751 1.135-1.655 1.979-2.712 2.532-1.057.554-2.454.83-4.192.83-2.42 0-4.536-.854-6.35-2.563-1.815-1.709-2.722-4.535-2.722-8.48 0-3.722.914-6.628 2.742-8.718 1.829-2.09 4.036-3.134 6.622-3.134zm.687 3.3c-2.641 0-4.449 1.232-5.422 3.695-.515 1.315-.772 3.038-.772 5.169 0 2.505.511 4.41 1.533 5.719 1.022 1.307 2.395 1.961 4.12 1.961 2.696 0 4.594-1.21 5.693-3.632.612-1.37.917-2.969.917-4.795 0-2.754-.57-4.795-1.71-6.124-1.14-1.328-2.593-1.993-4.359-1.993zm24.485-3.404c1.586 0 3.122.37 4.61 1.11 1.487.741 2.62 1.7 3.4 2.876.643.96 1.102 2.058 1.378 3.294l.123.629c.222 1.024.334 2.657.334 4.899h-16.373c.07 2.255.605 4.065 1.606 5.428 1.001 1.363 2.552 2.044 4.651 2.044 1.96 0 3.525-.643 4.693-1.93a6.499 6.499 0 0 0 1.418-2.595h3.692c-.098.817-.42 1.727-.97 2.73s-1.165 1.823-1.846 2.46c-1.14 1.107-2.551 1.854-4.234 2.241-.903.222-1.925.333-3.066.333-2.78 0-5.137-1.007-7.07-3.02-1.932-2.014-2.899-4.834-2.899-8.46 0-3.57.974-6.469 2.92-8.697 1.947-2.228 4.491-3.342 7.633-3.342zm-.229 3.26c-1.724 0-3.17.618-4.338 1.857-1.168 1.238-1.787 2.813-1.856 4.722h12.41c-.154-1.619-.508-2.913-1.065-3.881-1.028-1.8-2.746-2.699-5.151-2.699z"/>
        <path fill="#5A81EA" d="M16.956 20L33.91 36.923H0z"/>
        <path fill="#E14B51" d="M16.956 20L33.91 3.077H0z"/>
    </g>
</svg>
